<?xml version="1.0" encoding="UTF-8"?>
<svg version="1.1" xmlns="http://www.w3.org/2000/svg" width="103" height="64">
<path d="M0 0 C33.99 0 67.98 0 103 0 C103 21.12 103 42.24 103 64 C69.01 64 35.02 64 0 64 C0 42.88 0 21.76 0 0 Z " fill="#23221F" transform="translate(0,0)"/>
<path d="M0 0 C0 21.12 0 42.24 0 64 C-8.311875 64.020625 -16.62375 64.04125 -25.1875 64.0625 C-27.80453857 64.071604 -30.42157715 64.08070801 -33.11791992 64.09008789 C-35.19710234 64.09300909 -37.27628534 64.09555717 -39.35546875 64.09765625 C-40.43107056 64.10277222 -41.50667236 64.10788818 -42.61486816 64.11315918 C-44.16712097 64.11334045 -44.16712097 64.11334045 -45.75073242 64.11352539 C-46.64563889 64.115746 -47.54054535 64.11796661 -48.46257019 64.12025452 C-51.06452827 63.99694186 -53.4628987 63.57578024 -56 63 C-53.27785758 56.93464383 -48.07999773 52.89620804 -43.125 48.625 C-35.08588344 42.11168902 -35.08588344 42.11168902 -29 34 C-32.3 34 -35.6 34 -39 34 C-38.42208519 30.01880905 -37.18914835 27.2755575 -35.0625 23.875 C-34.53785156 23.02679687 -34.01320313 22.17859375 -33.47265625 21.3046875 C-32.33469232 19.52378904 -31.17231673 17.7584751 -30 16 C-31.98 16 -33.96 16 -36 16 C-35.81008287 6.95303867 -35.81008287 6.95303867 -32.875 3.5 C-21.95364253 -2.19809955 -13.21666263 0 0 0 Z " fill="#1F2123" transform="translate(103,0)"/>
<path d="M0 0 C1.98 0 3.96 0 6 0 C5.88490339 1.41750563 5.75746342 2.83401169 5.625 4.25 C5.55539063 5.03890625 5.48578125 5.8278125 5.4140625 6.640625 C4.98492887 9.085877 4.21399362 10.84836903 3 13 C1.35 13 -0.3 13 -2 13 C-2 11.02 -2 9.04 -2 7 C-2.66 7.33 -3.32 7.66 -4 8 C-4.65213292 10.02463255 -4.65213292 10.02463255 -5 12 C-4.34 12.33 -3.68 12.66 -3 13 C-4 14 -4 14 -6.5625 14.0625 C-7.366875 14.041875 -8.17125 14.02125 -9 14 C-9 15.98 -9 17.96 -9 20 C-8.21625 20 -7.4325 20 -6.625 20 C-5.08333333 20 -3.54166667 20 -2 20 C2.575103 15.23332865 5.77352886 10.01136386 8.078125 3.84765625 C9 2 9 2 12 0 C11.67 2.97 11.34 5.94 11 9 C12.98 9 14.96 9 17 9 C14 15 11 21 8 27 C11.3 27 14.6 27 18 27 C16.36901913 30.26196173 15.4706324 31.77898439 13.0234375 34.20703125 C12.43860596 34.79049316 11.85377441 35.37395508 11.2512207 35.97509766 C10.32249146 36.88461182 10.32249146 36.88461182 9.375 37.8125 C8.74489014 38.43688965 8.11478027 39.0612793 7.46557617 39.70458984 C3.6242079 43.48620679 -0.27928983 47.14930652 -4.44921875 50.5703125 C-6.23680025 52.21830955 -7.59469152 54.02152945 -9 56 C-7.35 56 -5.7 56 -4 56 C-4 56.33 -4 56.66 -4 57 C-10.6 57 -17.2 57 -24 57 C-24 55.02 -24 53.04 -24 51 C-23.34 51 -22.68 51 -22 51 C-22 51.99 -22 52.98 -22 54 C-20.68 54 -19.36 54 -18 54 C-18.01160156 53.38511719 -18.02320312 52.77023438 -18.03515625 52.13671875 C-18.04417969 51.32847656 -18.05320312 50.52023438 -18.0625 49.6875 C-18.07410156 48.88699219 -18.08570312 48.08648437 -18.09765625 47.26171875 C-18 45 -18 45 -17 42 C-22.28 42 -27.56 42 -33 42 C-33 38.7 -33 35.4 -33 32 C-30.36 32 -27.72 32 -25 32 C-25 31.34 -25 30.68 -25 30 C-26.60681641 30.01740234 -26.60681641 30.01740234 -28.24609375 30.03515625 C-29.64322743 30.04453299 -31.04036299 30.05363331 -32.4375 30.0625 C-33.14455078 30.07087891 -33.85160156 30.07925781 -34.58007812 30.08789062 C-36.38693559 30.09653588 -38.19387603 30.05220011 -40 30 C-41 29 -41 29 -41.125 26.5 C-41 24 -41 24 -40 23 C-37.46950598 22.92686433 -34.96695163 22.90752473 -32.4375 22.9375 C-31.72658203 22.94201172 -31.01566406 22.94652344 -30.28320312 22.95117188 C-28.52209987 22.96299136 -26.76103964 22.98092737 -25 23 C-25.020625 22.030625 -25.04125 21.06125 -25.0625 20.0625 C-25 17 -25 17 -24 16 C-21.32941149 15.85884839 -18.67567762 15.95752893 -16 16 C-16 12.37 -16 8.74 -16 5 C-11.05 5 -6.1 5 -1 5 C-0.67 3.35 -0.34 1.7 0 0 Z " fill="#07429C" transform="translate(56,7)"/>
<path d="M0 0 C1.76923828 0.01353516 1.76923828 0.01353516 3.57421875 0.02734375 C4.47785156 0.03894531 5.38148437 0.05054687 6.3125 0.0625 C5.00763447 2.92222867 3.95455912 4.42896328 1.6875 6.75 C-1.24310415 10.0931232 -1.11163371 13.00464204 -0.86328125 17.3046875 C-0.80527344 17.88476562 -0.74726562 18.46484375 -0.6875 19.0625 C2.74145476 19.4894252 5.89879451 19.66701035 9.3125 19.0625 C11.86983402 17.06957759 13.59604662 14.79766149 15.3125 12.0625 C16.3025 12.3925 17.2925 12.7225 18.3125 13.0625 C18.76472731 20.5996218 18.94543203 26.8174819 14.3125 33.0625 C10.73175919 36.99258137 8.34556112 38.16643608 3.1875 39.25 C-3.67705212 40.90600381 -7.82446085 45.00852947 -13.00292969 49.60839844 C-16.08667077 52.27024798 -19.30977614 54.73714672 -22.5625 57.1875 C-23.18092773 57.67283203 -23.79935547 58.15816406 -24.43652344 58.65820312 C-28.28942419 61.53798076 -30.69869812 62.65749472 -35.6875 62.0625 C-32.96535758 55.99714383 -27.76749773 51.95870804 -22.8125 47.6875 C-14.77338344 41.17418902 -14.77338344 41.17418902 -8.6875 33.0625 C-11.9875 33.0625 -15.2875 33.0625 -18.6875 33.0625 C-18.10958519 29.08130905 -16.87664835 26.3380575 -14.75 22.9375 C-14.22535156 22.08929687 -13.70070313 21.24109375 -13.16015625 20.3671875 C-12.02219232 18.58628904 -10.85981673 16.8209751 -9.6875 15.0625 C-11.6675 15.0625 -13.6475 15.0625 -15.6875 15.0625 C-15.495886 5.93470595 -15.495886 5.93470595 -12.3125 2.5 C-8.0118927 0.14490552 -4.84451141 -0.04796546 0 0 Z " fill="#0098EB" transform="translate(82.6875,0.9375)"/>
<path d="M0 0 C1.98 0 3.96 0 6 0 C5.88490339 1.41750563 5.75746342 2.83401169 5.625 4.25 C5.55539063 5.03890625 5.48578125 5.8278125 5.4140625 6.640625 C4.98492887 9.085877 4.21399362 10.84836903 3 13 C1.35 13 -0.3 13 -2 13 C-2 11.02 -2 9.04 -2 7 C-2.66 7.33 -3.32 7.66 -4 8 C-4.65213292 10.02463255 -4.65213292 10.02463255 -5 12 C-4.34 12.33 -3.68 12.66 -3 13 C-4 14 -4 14 -6.5625 14.0625 C-7.366875 14.041875 -8.17125 14.02125 -9 14 C-9 15.98 -9 17.96 -9 20 C-7.35 20 -5.7 20 -4 20 C-6.67430542 25.18529448 -10.63019441 29.07497762 -14.625 33.25 C-15.31851563 33.9821875 -16.01203125 34.714375 -16.7265625 35.46875 C-22.91574099 41.99639919 -22.91574099 41.99639919 -25.28515625 42.09765625 C-27.85677083 42.06510417 -30.42838542 42.03255208 -33 42 C-33 38.7 -33 35.4 -33 32 C-30.36 32 -27.72 32 -25 32 C-25 31.34 -25 30.68 -25 30 C-26.60681641 30.01740234 -26.60681641 30.01740234 -28.24609375 30.03515625 C-29.64322743 30.04453299 -31.04036299 30.05363331 -32.4375 30.0625 C-33.14455078 30.07087891 -33.85160156 30.07925781 -34.58007812 30.08789062 C-36.38693559 30.09653588 -38.19387603 30.05220011 -40 30 C-41 29 -41 29 -41.125 26.5 C-41 24 -41 24 -40 23 C-37.46950598 22.92686433 -34.96695163 22.90752473 -32.4375 22.9375 C-31.72658203 22.94201172 -31.01566406 22.94652344 -30.28320312 22.95117188 C-28.52209987 22.96299136 -26.76103964 22.98092737 -25 23 C-25.020625 22.030625 -25.04125 21.06125 -25.0625 20.0625 C-25 17 -25 17 -24 16 C-21.32941149 15.85884839 -18.67567762 15.95752893 -16 16 C-16 12.37 -16 8.74 -16 5 C-11.05 5 -6.1 5 -1 5 C-0.67 3.35 -0.34 1.7 0 0 Z " fill="#EA8A03" transform="translate(56,7)"/>
<path d="M0 0 C1.45606519 4.52092968 0.27032841 7.51648796 -1 12 C1.97 12.33 4.94 12.66 8 13 C6.96732474 17.13070103 6.66184283 17.67912367 3.62109375 20.234375 C2.94755859 20.80800781 2.27402344 21.38164063 1.58007812 21.97265625 C0.87302734 22.55917969 0.16597656 23.14570312 -0.5625 23.75 C-1.27341797 24.35199219 -1.98433594 24.95398438 -2.71679688 25.57421875 C-4.4711594 27.05777364 -6.23220941 28.53249599 -8 30 C-7.48904785 29.61118652 -6.9780957 29.22237305 -6.45166016 28.82177734 C-5.10680145 27.80261818 -3.75461552 26.79311008 -2.3984375 25.7890625 C-0.8027089 24.59876332 0.77582415 23.38504909 2.3359375 22.1484375 C8.44060162 17.50573178 14.34114111 14.96947581 22 14 C22.66 14.33 23.32 14.66 24 15 C23 18 23 18 20.9375 19.0625 C18 20 18 20 14.4375 20.5 C9.04734703 21.79725696 5.43847203 25.56361406 1.36328125 29.11328125 C-2.26984712 32.26982674 -6.03413836 35.22620965 -9.875 38.125 C-10.49318604 38.61025146 -11.11137207 39.09550293 -11.74829102 39.59545898 C-15.60175193 42.4750083 -18.01074742 43.59504847 -23 43 C-20.27785758 36.93464383 -15.07999773 32.89620804 -10.125 28.625 C-2.08588344 22.11168902 -2.08588344 22.11168902 4 14 C0.7 14 -2.6 14 -6 14 C-5.41892368 10.2397015 -4.34800504 7.46964968 -2.4375 4.1875 C-1.75494141 3.00220703 -1.75494141 3.00220703 -1.05859375 1.79296875 C-0.70925781 1.20128906 -0.35992187 0.60960938 0 0 Z " fill="#044CAF" transform="translate(70,20)"/>
<path d="M0 0 C0 3.48961209 -0.90379374 5.11480295 -2.5 8.1875 C-3.19609375 9.53908203 -3.19609375 9.53908203 -3.90625 10.91796875 C-4.2671875 11.60503906 -4.628125 12.29210938 -5 13 C-1.7 13 1.6 13 5 13 C3.36901913 16.26196173 2.4706324 17.77898439 0.0234375 20.20703125 C-0.56123291 20.79049316 -1.14590332 21.37395508 -1.74829102 21.97509766 C-2.36760498 22.58144043 -2.98691895 23.1877832 -3.625 23.8125 C-4.25656006 24.43688965 -4.88812012 25.0612793 -5.53881836 25.70458984 C-9.88383888 29.97434054 -14.30063206 34.11989233 -19 38 C-19.94875 38.804375 -20.8975 39.60875 -21.875 40.4375 C-24 42 -24 42 -26 42 C-24.58160025 37.95057896 -22.62488736 34.86833149 -20.0625 31.4375 C-19.37285156 30.50808594 -18.68320312 29.57867187 -17.97265625 28.62109375 C-17.32167969 27.75613281 -16.67070313 26.89117187 -16 26 C-15.42121094 25.22785156 -14.84242187 24.45570312 -14.24609375 23.66015625 C-13.83488281 23.11230469 -13.42367187 22.56445312 -13 22 C-14.32 21.67 -15.64 21.34 -17 21 C-15.30935414 16.71563036 -12.18644695 13.77624401 -9.0625 10.5 C-4.27350227 5.46868498 -4.27350227 5.46868498 0 0 Z " fill="#EBBC09" transform="translate(69,21)"/>
<path d="M0 0 C0.66 0 1.32 0 2 0 C1.65239851 7.66461295 0.05360494 12.48372764 -5.0625 18.375 C-8.7783531 21.49152196 -12.34933804 21.08774834 -17 21 C-15.38304525 17.36185181 -13.64561113 15.30701392 -11 12 C-15.29 12 -19.58 12 -24 12 C-22.66666667 8.66666667 -21.33333333 5.33333333 -20 2 C-19.67 2 -19.34 2 -19 2 C-18.67 3.98 -18.34 5.96 -18 8 C-13.89911061 8.47777352 -10.08137072 8.70799288 -6 8 C-3.78292915 6.08525699 -2.5365924 4.28205219 -1.0859375 1.75 C-0.72757813 1.1725 -0.36921875 0.595 0 0 Z " fill="#00C9FB" transform="translate(98,15)"/>
<path d="M0 0 C-1.609998 3.91797201 -4.30851999 6.66981472 -7.1875 9.6875 C-11.76815337 14.5749373 -16.01214376 19.61026938 -20 25 C-18.35 25 -16.7 25 -15 25 C-18.75 30.875 -18.75 30.875 -21 32 C-20.67 31.01 -20.34 30.02 -20 29 C-23.3 28.67 -26.6 28.34 -30 28 C-28.35148193 24.70296386 -27.48470368 23.2454581 -24.98828125 20.828125 C-24.39829346 20.2496582 -23.80830566 19.67119141 -23.20043945 19.07519531 C-22.57741943 18.47288086 -21.95439941 17.87056641 -21.3125 17.25 C-16.77947592 12.80529282 -12.37382676 8.35873432 -8.33203125 3.453125 C-5.54481044 0.41252048 -4.14702839 0 0 0 Z " fill="#242626" transform="translate(72,17)"/>
<path d="M0 0 C1.15941038 3.47823115 0.70820884 5.45895578 0 9 C1.98 9 3.96 9 6 9 C5.67 9.66 5.34 10.32 5 11 C4.154375 11.03609375 3.30875 11.0721875 2.4375 11.109375 C-2.86872639 12.48417002 -5.46044049 16.22474905 -9 20.25 C-13.44731371 25.20725005 -17.75566047 29.88160656 -23 34 C-23.93972656 34.78310547 -23.93972656 34.78310547 -24.8984375 35.58203125 C-26.265625 36.72135417 -27.6328125 37.86067708 -29 39 C-29.66 38.67 -30.32 38.34 -31 38 C-28.63094737 35.43194695 -26.25370494 32.87161234 -23.875 30.3125 C-23.20984375 29.59126953 -22.5446875 28.87003906 -21.859375 28.12695312 C-18.92357457 24.97528502 -16.03443184 21.92693035 -12.67578125 19.22265625 C-8.10198934 15.42340428 -5.57684851 10.55943642 -3.3125 5.125 C-2 2 -2 2 0 0 Z " fill="#0E449D" transform="translate(67,7)"/>
<path d="M0 0 C0.66 0.33 1.32 0.66 2 1 C1.34 1.639375 0.68 2.27875 0 2.9375 C-2.68221553 7.04464253 -2.37381974 10.23379829 -2 15 C1.42895476 15.4269252 4.58629451 15.60451035 8 15 C10.55733402 13.00707759 12.28354662 10.73516149 14 8 C14.99 8.33 15.98 8.66 17 9 C17.44384648 16.39744131 17.6882455 22.88489718 13 29 C12.01 29.66 11.02 30.32 10 31 C9.34 30.67 8.68 30.34 8 30 C9.20724246 27.48491155 10.51215241 25.18375709 12 22.8125 C14.35878438 18.76384024 15.21065784 14.58026172 16 10 C15.34 10 14.68 10 14 10 C13.7525 10.7425 13.505 11.485 13.25 12.25 C11.84302416 15.34534685 10.65233648 16.87723324 8 19 C5.01953125 19.42578125 5.01953125 19.42578125 1.8125 19.3125 C0.74644531 19.28800781 -0.31960937 19.26351563 -1.41796875 19.23828125 C-4 19 -4 19 -5 18 C-6.09427425 6.93219755 -6.09427425 6.93219755 -3.8828125 3.02734375 C-2.5 1.6875 -2.5 1.6875 0 0 Z " fill="#0392E4" transform="translate(84,5)"/>
<path d="M0 0 C3.3 0 6.6 0 10 0 C10 2.97 10 5.94 10 9 C8.68 9 7.36 9 6 9 C6 8.01 6 7.02 6 6 C5.34 6 4.68 6 4 6 C4 7.98 4 9.96 4 12 C1.69 12 -0.62 12 -3 12 C-2.67 10.68 -2.34 9.36 -2 8 C-2.66 7.67 -3.32 7.34 -4 7 C-3.525625 6.5875 -3.05125 6.175 -2.5625 5.75 C-0.63715751 3.86673565 -0.63715751 3.86673565 0 0 Z " fill="#20262F" transform="translate(28,52)"/>
<path d="M0 0 C1.45606519 4.52092968 0.27032841 7.51648796 -1 12 C1.97 12.33 4.94 12.66 8 13 C6.98034567 17.07861732 6.68558409 17.66920558 3.7265625 20.234375 C3.0665625 20.80800781 2.4065625 21.38164063 1.7265625 21.97265625 C1.03304687 22.55917969 0.33953125 23.14570312 -0.375 23.75 C-1.06078125 24.35199219 -1.7465625 24.95398438 -2.453125 25.57421875 C-7.61151857 30 -7.61151857 30 -11 30 C-10.58113525 29.58637207 -10.16227051 29.17274414 -9.73071289 28.74658203 C-7.83870591 26.87533169 -5.95056815 25.00022415 -4.0625 23.125 C-3.40314453 22.47402344 -2.74378906 21.82304688 -2.06445312 21.15234375 C-1.43603516 20.52714844 -0.80761719 19.90195312 -0.16015625 19.2578125 C0.42113037 18.6817627 1.00241699 18.10571289 1.60131836 17.51220703 C3.09951936 16.03347525 3.09951936 16.03347525 4 14 C0.7 14 -2.6 14 -6 14 C-5.41892368 10.2397015 -4.34800504 7.46964968 -2.4375 4.1875 C-1.98246094 3.39730469 -1.52742188 2.60710938 -1.05859375 1.79296875 C-0.70925781 1.20128906 -0.35992187 0.60960938 0 0 Z " fill="#0E4DA9" transform="translate(70,20)"/>
<path d="M0 0 C0.66 0 1.32 0 2 0 C2 1.98 2 3.96 2 6 C3.65 6 5.3 6 7 6 C7.33 5.34 7.66 4.68 8 4 C7.40716379 7.39192363 6.23256811 9.2107757 3.9375 11.75 C3.38964844 12.36359375 2.84179688 12.9771875 2.27734375 13.609375 C1.85582031 14.06828125 1.43429688 14.5271875 1 15 C-0.98 14.34 -2.96 13.68 -5 13 C-5 11.02 -5 9.04 -5 7 C-3.35 6.67 -1.7 6.34 0 6 C-0.2784375 4.7934375 -0.2784375 4.7934375 -0.5625 3.5625 C-0.706875 2.716875 -0.85125 1.87125 -1 1 C-0.67 0.67 -0.34 0.34 0 0 Z " fill="#A76E19" transform="translate(52,14)"/>
<path d="M0 0 C1.98 0 3.96 0 6 0 C5.88490339 1.41750563 5.75746342 2.83401169 5.625 4.25 C5.55539063 5.03890625 5.48578125 5.8278125 5.4140625 6.640625 C4.98492887 9.085877 4.21399362 10.84836903 3 13 C1.35 13 -0.3 13 -2 13 C-2 11.02 -2 9.04 -2 7 C-2.99 6.67 -3.98 6.34 -5 6 C-3.68 6 -2.36 6 -1 6 C-0.67 4.02 -0.34 2.04 0 0 Z " fill="#EFAB02" transform="translate(56,7)"/>
<path d="M0 0 C0.66 0 1.32 0 2 0 C1.34978666 10.29130762 1.34978666 10.29130762 -2 14 C-5.73290719 14.65325876 -6.78697711 14.14201526 -10 12 C-10 11.01 -10 10.02 -10 9 C-9.278125 8.814375 -8.55625 8.62875 -7.8125 8.4375 C-4.36981743 6.67790669 -3.12833769 4.67715136 -1.11328125 1.4609375 C-0.74589844 0.97882812 -0.37851563 0.49671875 0 0 Z " fill="#44DFFC" transform="translate(98,15)"/>
<path d="M0 0 C4.95 0 9.9 0 15 0 C15 1.65 15 3.3 15 5 C10.05 5 5.1 5 0 5 C0 3.35 0 1.7 0 0 Z " fill="#F28201" transform="translate(6,44)"/>
<path d="M0 0 C4.95 0 9.9 0 15 0 C14.67 1.65 14.34 3.3 14 5 C9.71 5 5.42 5 1 5 C0.67 3.35 0.34 1.7 0 0 Z " fill="#E1710C" transform="translate(13,52)"/>
<path d="M0 0 C0.99 0.33 1.98 0.66 3 1 C1.11204204 2.80063614 -0.78456911 4.59030514 -2.6875 6.375 C-3.48317383 7.13683594 -3.48317383 7.13683594 -4.29492188 7.9140625 C-7.35912035 10.77147457 -9.9106645 12.74057571 -14 14 C-12.54955729 9.89041233 -10.48889248 6.56741255 -8 3 C-7.34 3.33 -6.68 3.66 -6 4 C-5.071875 3.319375 -4.14375 2.63875 -3.1875 1.9375 C-2.135625 1.298125 -1.08375 0.65875 0 0 Z " fill="#E8870E" transform="translate(57,49)"/>
<path d="M0 0 C0.66 0.33 1.32 0.66 2 1 C1.34 1.639375 0.68 2.27875 0 2.9375 C-2.7885829 7.20751756 -2.30054463 9.96587748 -2 15 C0.97 15.33 3.94 15.66 7 16 C7 16.33 7 16.66 7 17 C3.04 17.33 -0.92 17.66 -5 18 C-5.76681614 6.36143498 -5.76681614 6.36143498 -3.88671875 3.0234375 C-2.5 1.6875 -2.5 1.6875 0 0 Z " fill="#026DCA" transform="translate(84,5)"/>
<path d="M0 0 C0.66 0.99 1.32 1.98 2 3 C3.96361864 3.57748803 3.96361864 3.57748803 6.125 3.6875 C7.40375 3.790625 8.6825 3.89375 10 4 C9.67 6.31 9.34 8.62 9 11 C8.67 10.34 8.34 9.68 8 9 C5.87423218 8.53348793 5.87423218 8.53348793 3.4375 8.375 C2.61121094 8.30023438 1.78492187 8.22546875 0.93359375 8.1484375 C0.29550781 8.09945312 -0.34257813 8.05046875 -1 8 C-0.67 5.36 -0.34 2.72 0 0 Z " fill="#0086E3" transform="translate(70,24)"/>
<path d="M0 0 C1.91015625 0.1328125 1.91015625 0.1328125 3.91015625 1.1328125 C3.58015625 2.4528125 3.25015625 3.7728125 2.91015625 5.1328125 C-0.05984375 5.1328125 -3.02984375 5.1328125 -6.08984375 5.1328125 C-6.41984375 3.8128125 -6.74984375 2.4928125 -7.08984375 1.1328125 C-5.19099279 -0.76603846 -2.51736472 0.00913744 0 0 Z " fill="#B56020" transform="translate(22.08984375,58.8671875)"/>
<path d="M0 0 C2.97 0 5.94 0 9 0 C9.33 1.32 9.66 2.64 10 4 C9 5 9 5 6.93359375 5.09765625 C6.10988281 5.08605469 5.28617187 5.07445313 4.4375 5.0625 C3.61121094 5.05347656 2.78492188 5.04445313 1.93359375 5.03515625 C1.29550781 5.02355469 0.65742187 5.01195313 0 5 C0 3.35 0 1.7 0 0 Z " fill="#E37403" transform="translate(2,59)"/>
<path d="M0 0 C1.15941038 3.47823115 0.70820884 5.45895578 0 9 C1.98 9 3.96 9 6 9 C5.67 9.66 5.34 10.32 5 11 C3.1875 11.44921875 3.1875 11.44921875 1 11.6875 C0.278125 11.77386719 -0.44375 11.86023437 -1.1875 11.94921875 C-1.785625 11.96597656 -2.38375 11.98273437 -3 12 C-4 11 -4 11 -4.3125 8.25 C-3.93491949 4.32316275 -2.66026601 2.82653264 0 0 Z " fill="#0458AF" transform="translate(67,7)"/>
<path d="M0 0 C2.64 0 5.28 0 8 0 C6.73205551 3.80383347 5.35546712 4.00269814 2 6 C-0.15258921 8.47149132 -1.62282546 11.03377791 -3 14 C-3.33164895 9.24636504 -2.56608134 6.95604207 0 3 C0 2.01 0 1.02 0 0 Z " fill="#00B5F7" transform="translate(80,2)"/>
<path d="M0 0 C1.32 0 2.64 0 4 0 C4 2.97 4 5.94 4 9 C2.68 9 1.36 9 0 9 C0 8.01 0 7.02 0 6 C-0.66 6 -1.32 6 -2 6 C-2 5.34 -2 4.68 -2 4 C-1.34 4 -0.68 4 0 4 C0 2.68 0 1.36 0 0 Z " fill="#293F65" transform="translate(34,52)"/>
<path d="M0 0 C2.31 0 4.62 0 7 0 C7.042721 1.66611905 7.04063832 3.33382885 7 5 C6 6 6 6 3.5 6.125 C1 6 1 6 0 5 C-0.04063832 3.33382885 -0.042721 1.66611905 0 0 Z " fill="#E1A804" transform="translate(31,13)"/>
<path d="M0 0 C0.66 0.66 1.32 1.32 2 2 C-4.93 7.445 -4.93 7.445 -12 13 C-12.66 12.67 -13.32 12.34 -14 12 C-12.04417252 10.18472893 -10.08550123 8.37271109 -8.125 6.5625 C-7.56941406 6.04623047 -7.01382813 5.52996094 -6.44140625 4.99804688 C-2.2265625 1.11328125 -2.2265625 1.11328125 0 0 Z " fill="#0087E4" transform="translate(75,38)"/>
<path d="M0 0 C1.07310858 3.27185553 0.89263102 5.42947592 0.0625 8.75 C-0.13214844 9.54921875 -0.32679687 10.3484375 -0.52734375 11.171875 C-0.76130859 12.07679687 -0.76130859 12.07679687 -1 13 C-2.65 13 -4.3 13 -6 13 C-4.31326082 8.50202887 -2.18326108 4.27113698 0 0 Z " fill="#105CAC" transform="translate(70,20)"/>
<path d="M0 0 C1.98 0 3.96 0 6 0 C6 1.98 6 3.96 6 6 C4.02 6 2.04 6 0 6 C0 4.02 0 2.04 0 0 Z " fill="#382C1C" transform="translate(33,29)"/>
<path d="M0 0 C-0.3125 1.875 -0.3125 1.875 -1 4 C-1.99 4.66 -2.98 5.32 -4 6 C-4 4.35 -4 2.7 -4 1 C-7.3 1 -10.6 1 -14 1 C-14 0.67 -14 0.34 -14 0 C-9.20699867 -1.39151652 -4.84864218 -0.68662689 0 0 Z " fill="#034FAF" transform="translate(78,33)"/>
<path d="M0 0 C0.99 1.32 1.98 2.64 3 4 C1.02 5.98 -0.96 7.96 -3 10 C-3.99 9.67 -4.98 9.34 -6 9 C-4.02 6.03 -2.04 3.06 0 0 Z " fill="#074CA4" transform="translate(62,16)"/>
<path d="M0 0 C1.65 0 3.3 0 5 0 C5 1.98 5 3.96 5 6 C3.35 6 1.7 6 0 6 C0 4.02 0 2.04 0 0 Z " fill="#352A1D" transform="translate(47,21)"/>
<path d="M0 0 C1.98 0 3.96 0 6 0 C6 1.32 6 2.64 6 4 C3.69 4.33 1.38 4.66 -1 5 C-0.67 3.35 -0.34 1.7 0 0 Z " fill="#7D5D57" transform="translate(28,52)"/>
<path d="M0 0 C0.66 0.33 1.32 0.66 2 1 C-1.75 6.875 -1.75 6.875 -4 8 C-4.66 7.67 -5.32 7.34 -6 7 C-4.60667426 3.63279613 -3.0210714 2.0140476 0 0 Z " fill="#0074D6" transform="translate(98,28)"/>
<path d="M0 0 C6.93 0.495 6.93 0.495 14 1 C12 5 12 5 10 6 C10 4.68 10 3.36 10 2 C6.7 2 3.4 2 0 2 C0 1.34 0 0.68 0 0 Z " fill="#00B1F5" transform="translate(73,26)"/>
<path d="M0 0 C0.33 0 0.66 0 1 0 C1.63019694 9.17286652 1.63019694 9.17286652 -1 12.625 C-1.66 13.07875 -2.32 13.5325 -3 14 C-3 10.7997785 -2.36757608 8.38516529 -1.5 5.3125 C-1.2215625 4.31863281 -0.943125 3.32476563 -0.65625 2.30078125 C-0.33140625 1.16189453 -0.33140625 1.16189453 0 0 Z " fill="#06A1ED" transform="translate(100,16)"/>
<path d="M0 0 C0.99 0.33 1.98 0.66 3 1 C1.71372289 2.17260611 0.42080217 3.3379283 -0.875 4.5 C-1.59429687 5.1496875 -2.31359375 5.799375 -3.0546875 6.46875 C-5 8 -5 8 -7 8 C-6.67 7.01 -6.34 6.02 -6 5 C-5.01 5 -4.02 5 -3 5 C-2.690625 4.360625 -2.38125 3.72125 -2.0625 3.0625 C-1 1 -1 1 0 0 Z " fill="#E58011" transform="translate(50,55)"/>
<path d="M0 0 C0 4.00503984 -1.52994022 6.9301813 -4 10 C-6.75 10.9375 -6.75 10.9375 -9 11 C-8.60167969 10.54109375 -8.20335937 10.0821875 -7.79296875 9.609375 C-5.08857938 6.47728415 -2.42008229 3.36122541 0 0 Z " fill="#CEBF19" transform="translate(69,21)"/>
<path d="M0 0 C0.99 0.33 1.98 0.66 3 1 C2.67 1.66 2.34 2.32 2 3 C1.34 2.67 0.68 2.34 0 2 C-0.268125 2.78375 -0.53625 3.5675 -0.8125 4.375 C-2 7 -2 7 -5 9 C-4.5206753 4.68607774 -3.2542015 2.83430453 0 0 Z " fill="#0B9BD9" transform="translate(98,13)"/>
<path d="M0 0 C1.65 0 3.3 0 5 0 C5 1.32 5 2.64 5 4 C3.02 4 1.04 4 -1 4 C-0.67 2.68 -0.34 1.36 0 0 Z " fill="#DC9F05" transform="translate(25,18)"/>
<path d="M0 0 C0.66 0.66 1.32 1.32 2 2 C1.828125 4.12890625 1.828125 4.12890625 1.25 6.5625 C1.06953125 7.36816406 0.8890625 8.17382812 0.703125 9.00390625 C0 11 0 11 -2 12 C-1.34 8.04 -0.68 4.08 0 0 Z " fill="#393221" transform="translate(62,7)"/>
<path d="M0 0 C1.65 0 3.3 0 5 0 C5.33 1.65 5.66 3.3 6 5 C4.35 5 2.7 5 1 5 C1.33 3.68 1.66 2.36 2 1 C1.34 0.67 0.68 0.34 0 0 Z " fill="#59505E" transform="translate(24,59)"/>
<path d="M0 0 C1.15941038 3.47823115 0.70820884 5.45895578 0 9 C1.98 9 3.96 9 6 9 C5.67 9.66 5.34 10.32 5 11 C2.03 10.505 2.03 10.505 -1 10 C-1.9765625 3.9453125 -1.9765625 3.9453125 -2 2 C-1.34 1.34 -0.68 0.68 0 0 Z " fill="#0469BD" transform="translate(67,7)"/>
<path d="M0 0 C2.31 0 4.62 0 7 0 C7 0.99 7 1.98 7 3 C4.69 3 2.38 3 0 3 C0 2.01 0 1.02 0 0 Z " fill="#EF7405" transform="translate(15,60)"/>
<path d="M0 0 C0.66 0.33 1.32 0.66 2 1 C0.38405168 3.04119788 -1.2856382 5.04072937 -3 7 C-3.66 7 -4.32 7 -5 7 C-4.60196439 4.11424181 -4.20990931 3.17810487 -1.9375 1.25 C-1.298125 0.8375 -0.65875 0.425 0 0 Z " fill="#0281D5" transform="translate(73,2)"/>
<path d="M0 0 C1.65 0 3.3 0 5 0 C5 1.32 5 2.64 5 4 C3.35 4 1.7 4 0 4 C0 2.68 0 1.36 0 0 Z " fill="#EFB803" transform="translate(46,6)"/>
<path d="M0 0 C0.66 0.99 1.32 1.98 2 3 C0.71937515 4.7074998 -0.61767557 6.37373596 -2 8 C-2.66 8 -3.32 8 -4 8 C-2.87548273 5.0280615 -1.77706209 2.66559313 0 0 Z " fill="#DCA30E" transform="translate(49,52)"/>
</svg>
